<?xml version="1.0" standalone="no"?>
<!DOCTYPE svg PUBLIC "-//W3C//DTD SVG 20010904//EN"
 "http://www.w3.org/TR/2001/REC-SVG-20010904/DTD/svg10.dtd">
<svg version="1.0" xmlns="http://www.w3.org/2000/svg"
 width="342.000000pt" height="273.000000pt" viewBox="0 0 342.000000 273.000000"
 preserveAspectRatio="xMidYMid meet">
<metadata>
Created by potrace 1.16, written by Peter Selinger 2001-2019
</metadata>
<g transform="translate(0.000000,273.000000) scale(0.100000,-0.100000)"
fill="#000000" stroke="none">
<path d="M1664 2639 c-75 -9 -122 -28 -199 -81 -163 -110 -231 -311 -171 -503
18 -58 99 -203 159 -284 109 -147 251 -301 277 -301 26 0 168 154 277 301 60
81 141 226 159 284 61 197 -9 394 -180 509 -100 67 -196 90 -322 75z m143
-349 c63 -38 69 -148 12 -201 -102 -95 -251 5 -210 142 15 51 59 79 121 79 27
0 58 -8 77 -20z"/>
<path d="M863 1523 c-23 -8 -65 -34 -91 -58 -64 -58 -95 -127 -95 -215 0 -206
201 -343 396 -270 103 39 187 159 187 270 0 69 -41 161 -95 213 -72 70 -203
96 -302 60z"/>
<path d="M2384 1519 c-102 -39 -184 -159 -184 -269 0 -111 84 -231 187 -270
195 -73 396 64 396 270 0 88 -31 157 -94 214 -84 75 -199 96 -305 55z"/>
<path d="M825 771 c-136 -22 -283 -82 -343 -140 -52 -51 -62 -93 -62 -270 l0
-151 26 -10 c15 -6 226 -10 530 -10 491 0 505 1 524 20 18 18 20 33 20 140 0
218 -27 274 -162 339 -129 61 -214 82 -358 86 -69 2 -147 0 -175 -4z"/>
<path d="M2346 770 c-27 -5 -93 -23 -147 -40 -124 -40 -194 -87 -228 -155 -24
-45 -26 -62 -30 -196 -3 -139 -2 -148 18 -168 21 -21 22 -22 542 -19 449 3
521 5 529 18 14 22 12 295 -2 343 -24 79 -118 142 -288 192 -95 28 -303 42
-394 25z"/>
</g>
</svg>
