<?xml version="1.0" standalone="no"?>
<!DOCTYPE svg PUBLIC "-//W3C//DTD SVG 20010904//EN"
 "http://www.w3.org/TR/2001/REC-SVG-20010904/DTD/svg10.dtd">
<svg version="1.0" xmlns="http://www.w3.org/2000/svg"
 width="290.000000pt" height="227.000000pt" viewBox="0 0 290.000000 227.000000"
 preserveAspectRatio="xMidYMid meet">
<metadata>
Created by potrace 1.16, written by Peter Selinger 2001-2019
</metadata>
<g transform="translate(0.000000,227.000000) scale(0.100000,-0.100000)"
fill="#000000" stroke="none">
<path d="M1165 1984 c-52 -19 -112 -78 -138 -134 -28 -62 -27 -151 3 -210 21
-43 372 -409 414 -432 15 -8 46 18 213 184 218 216 247 257 247 348 0 30 -6
73 -13 94 -18 51 -85 124 -136 147 -83 38 -210 16 -276 -47 l-26 -24 -19 21
c-53 61 -180 85 -269 53z"/>
<path d="M549 1451 l-29 -29 0 -332 c0 -255 3 -338 13 -363 8 -18 89 -119 180
-225 l166 -193 3 -72 3 -72 190 0 190 0 3 218 c1 135 -2 234 -9 260 -9 35 -39
70 -187 218 -113 113 -187 179 -205 183 -65 15 -138 -58 -122 -123 4 -14 64
-84 136 -156 132 -134 152 -166 108 -180 -18 -6 -44 15 -155 126 -87 87 -138
146 -145 168 -17 50 -13 107 11 149 20 35 21 49 18 221 l-3 183 -28 24 c-41
35 -99 33 -138 -5z"/>
<path d="M2223 1456 l-28 -24 -3 -183 c-3 -172 -2 -186 18 -221 24 -42 28 -99
11 -149 -7 -22 -58 -81 -145 -168 -111 -111 -137 -132 -155 -126 -45 14 -25
47 103 174 68 67 130 136 136 152 28 66 -46 150 -116 133 -19 -4 -90 -68 -206
-183 -148 -148 -178 -183 -187 -218 -7 -26 -10 -125 -9 -260 l3 -218 190 0
190 0 3 72 3 72 166 193 c91 106 172 207 180 225 10 25 13 108 13 363 l0 332
-29 29 c-39 38 -97 40 -138 5z"/>
</g>
</svg>
