<?xml version="1.0" standalone="no"?>
<!DOCTYPE svg PUBLIC "-//W3C//DTD SVG 20010904//EN"
 "http://www.w3.org/TR/2001/REC-SVG-20010904/DTD/svg10.dtd">
<svg version="1.0" xmlns="http://www.w3.org/2000/svg"
 width="359.000000pt" height="216.000000pt" viewBox="0 0 359.000000 216.000000"
 preserveAspectRatio="xMidYMid meet">
<metadata>
Created by potrace 1.16, written by Peter Selinger 2001-2019
</metadata>
<g transform="translate(0.000000,216.000000) scale(0.100000,-0.100000)"
fill="#000000" stroke="none">
<path d="M1856 1805 c-65 -25 -135 -75 -171 -122 -104 -136 -99 -321 11 -452
162 -193 483 -145 592 87 23 49 27 70 27 147 0 77 -4 98 -27 147 -34 72 -98
137 -172 173 -72 35 -196 44 -260 20z m185 -262 c38 -36 69 -71 69 -77 0 -14
-131 -146 -145 -146 -16 0 -145 129 -145 144 0 13 132 146 145 146 4 0 38 -30
76 -67z"/>
<path d="M1165 983 c-27 -2 -94 -8 -148 -14 l-97 -11 2 -257 3 -256 93 -5 93
-5 210 -108 c163 -84 222 -110 262 -114 43 -4 105 8 342 67 160 40 302 78 317
86 41 21 335 252 358 281 13 17 20 41 20 70 0 38 -5 50 -35 80 -33 33 -39 35
-83 31 -32 -3 -68 -17 -112 -45 -36 -22 -102 -61 -146 -87 -45 -26 -96 -65
-113 -87 -46 -56 -78 -69 -215 -84 -66 -7 -169 -19 -227 -26 -59 -7 -114 -9
-123 -6 -18 7 -22 42 -4 53 6 4 111 17 234 30 154 15 230 27 245 38 32 22 59
67 59 100 0 37 -32 89 -65 104 -13 6 -123 21 -242 32 -210 21 -223 23 -363 71
-168 58 -197 65 -265 62z"/>
</g>
</svg>
