<?xml version="1.0" standalone="no"?>
<!DOCTYPE svg PUBLIC "-//W3C//DTD SVG 20010904//EN"
 "http://www.w3.org/TR/2001/REC-SVG-20010904/DTD/svg10.dtd">
<svg version="1.0" xmlns="http://www.w3.org/2000/svg"
 width="640.000000pt" height="647.000000pt" viewBox="0 0 640.000000 647.000000"
 preserveAspectRatio="xMidYMid meet">
<metadata>
Created by potrace 1.16, written by Peter Selinger 2001-2019
</metadata>
<g transform="translate(0.000000,647.000000) scale(0.100000,-0.100000)"
fill="#000000" stroke="none">
<path d="M0 3235 l0 -3235 3200 0 3200 0 0 3235 0 3235 -3200 0 -3200 0 0
-3235z m3280 2632 c14 -12 38 -40 55 -62 31 -42 43 -57 60 -78 14 -15 75 -116
75 -122 0 -2 12 -30 26 -62 14 -32 29 -67 34 -78 33 -76 42 -138 47 -315 2
-102 0 -216 -5 -255 -6 -38 -17 -126 -26 -195 -19 -140 -24 -161 -26 -110 l-2
35 -9 -40 c-4 -22 -7 -78 -7 -125 l2 -85 6 90 6 90 2 -87 c2 -78 4 -88 20 -88
10 0 22 3 26 8 4 4 11 7 14 7 32 3 82 18 82 25 0 6 3 9 8 9 4 -1 10 0 15 1 4
1 10 3 15 5 4 1 18 6 32 12 14 6 27 10 30 9 3 0 19 9 37 22 17 12 34 22 38 22
4 0 29 13 55 29 27 16 51 27 54 24 3 -4 6 -1 6 6 0 7 5 9 10 6 6 -3 10 1 10 9
0 9 4 16 8 16 15 0 99 84 121 120 34 57 26 101 -25 135 -15 10 -41 19 -58 21
-82 9 -113 13 -133 18 -13 3 -33 8 -44 11 -12 2 -35 19 -50 36 -25 28 -29 41
-29 90 0 52 3 61 34 93 29 31 51 42 79 37 4 0 7 3 7 7 0 12 44 16 170 16 131
0 170 -4 170 -18 0 -5 3 -7 6 -3 8 8 64 -13 64 -25 0 -5 4 -6 10 -3 15 9 99
-81 122 -133 19 -40 22 -66 23 -167 0 -112 -2 -125 -33 -205 -40 -104 -87
-175 -172 -261 -77 -78 -119 -111 -131 -103 -5 3 -9 -1 -9 -8 0 -13 -134 -94
-143 -87 -3 2 -13 -3 -23 -12 -23 -19 -100 -59 -115 -59 -6 0 -22 -9 -36 -20
-14 -11 -30 -17 -37 -13 -16 9 23 -32 149 -161 119 -121 166 -162 194 -171 26
-8 74 35 103 93 64 128 95 174 175 261 24 25 43 51 43 56 0 6 5 3 10 -5 8 -13
10 -13 10 1 0 9 16 27 35 40 19 13 35 29 35 34 0 6 5 3 10 -5 9 -13 10 -13 10
1 0 15 80 68 80 52 0 -4 5 -1 10 7 12 20 211 22 217 3 3 -7 13 -13 24 -13 11
0 19 -7 20 -17 0 -10 3 -13 5 -6 7 17 70 -38 146 -127 31 -35 98 -143 98 -156
0 -5 7 -22 16 -39 9 -17 19 -64 22 -108 4 -72 3 -80 -23 -117 -15 -22 -30 -38
-33 -36 -2 3 -12 -5 -22 -16 -35 -43 -209 -29 -227 19 -3 7 -9 11 -13 8 -5 -3
-21 12 -37 32 -15 21 -31 40 -35 43 -3 3 -26 46 -50 95 l-43 91 -24 -36 c-131
-195 -225 -396 -200 -426 6 -8 14 -12 18 -10 3 2 17 -1 31 -7 33 -13 57 -19
140 -33 47 -8 65 -12 65 -14 0 -2 24 -7 70 -14 38 -6 50 -8 108 -21 12 -3 42
-8 67 -11 25 -3 56 -8 70 -10 66 -13 158 -19 290 -19 149 1 200 5 200 16 0 3
6 6 13 7 6 0 23 3 37 7 14 3 32 8 40 10 8 2 15 4 15 5 0 10 164 21 194 13 17
-4 21 -13 21 -47 0 -40 -18 -90 -21 -56 0 8 -5 2 -11 -14 -8 -21 -13 -25 -19
-15 -7 12 -9 11 -9 -1 0 -15 -25 -32 -120 -80 -55 -28 -91 -43 -99 -40 -2 1
-7 -3 -10 -9 -6 -9 -46 -21 -78 -23 -7 -1 -13 -4 -13 -8 0 -4 -6 -7 -12 -7 -7
0 -26 -3 -43 -7 -16 -3 -52 -9 -80 -12 -27 -3 -66 -10 -85 -15 -35 -9 -334 -6
-380 4 -14 3 -49 8 -78 11 -72 8 -157 22 -157 26 0 4 -44 11 -82 13 -32 1 -47
-3 -68 -23 -25 -23 -27 -29 -21 -80 7 -64 33 -148 64 -207 20 -39 70 -86 93
-89 5 -1 11 -3 14 -4 13 -7 31 -5 43 3 6 5 12 7 12 3 0 -4 14 0 30 9 16 9 30
12 30 8 0 -5 4 -3 8 3 11 16 78 54 96 54 9 0 16 4 16 9 0 5 12 12 28 16 15 4
36 9 47 12 33 9 135 12 135 4 0 -4 10 -7 22 -8 12 -1 33 -14 47 -28 23 -23 26
-33 26 -103 0 -104 -28 -163 -126 -261 -59 -59 -88 -80 -93 -68 -2 7 -5 5 -5
-4 -1 -15 -33 -33 -53 -30 -5 1 -8 -4 -8 -9 0 -6 -9 -10 -19 -10 -11 0 -23 -5
-26 -10 -4 -6 -11 -8 -16 -5 -5 4 -9 2 -9 -2 0 -12 -40 -16 -135 -16 -90 0
-135 4 -135 14 0 4 -13 9 -28 12 -35 7 -102 45 -102 58 0 5 -7 9 -15 9 -8 0
-15 7 -15 16 0 8 -4 13 -9 10 -5 -3 -23 10 -39 29 -37 42 -112 151 -112 162 0
5 -7 18 -15 28 -8 11 -35 48 -60 82 -24 34 -56 70 -70 79 -22 15 -27 15 -47 1
-40 -26 -72 -60 -123 -132 -85 -118 -105 -156 -93 -178 13 -25 57 -65 81 -72
9 -4 17 -13 17 -21 0 -8 4 -13 9 -9 6 3 14 -3 20 -12 6 -10 11 -15 11 -11 0
12 93 -42 116 -67 12 -13 24 -22 27 -19 9 10 114 -116 139 -168 74 -149 76
-335 7 -458 -21 -37 -111 -130 -126 -130 -7 0 -13 -4 -13 -9 0 -10 -84 -62
-105 -65 -7 -1 -20 -8 -29 -15 -9 -7 -16 -10 -16 -6 0 4 -7 2 -15 -5 -8 -7
-15 -9 -15 -5 0 4 -6 3 -12 -3 -16 -12 -128 -13 -128 0 0 5 -4 7 -9 4 -13 -9
-58 30 -75 66 -25 49 -22 207 5 252 17 29 99 87 99 70 0 -2 10 1 23 8 12 7 24
13 27 13 14 2 68 36 80 50 11 14 7 22 -30 60 -24 25 -49 45 -56 45 -7 0 -15 7
-18 16 -3 8 -10 13 -15 10 -5 -3 -12 1 -15 9 -3 8 -9 14 -13 13 -15 -4 -53 13
-53 24 0 6 -3 8 -7 5 -3 -4 -12 -2 -20 4 -7 6 -13 8 -13 4 0 -4 -6 -2 -14 4
-8 7 -37 14 -64 16 -44 3 -54 0 -82 -25 -17 -15 -40 -45 -50 -66 -25 -47 -60
-149 -60 -171 0 -9 -4 -30 -10 -47 -5 -17 -28 -92 -50 -166 -23 -74 -45 -144
-50 -155 -37 -84 -45 -143 -45 -315 0 -111 4 -187 12 -208 15 -42 28 -218 19
-266 l-7 -37 -51 3 c-50 3 -54 5 -102 64 -28 33 -58 71 -66 83 -8 13 -20 29
-25 35 -18 19 -72 112 -96 163 -20 42 -23 66 -25 193 -1 142 8 232 41 370 31
133 62 279 84 395 6 33 16 79 22 101 16 59 -6 91 -61 91 -22 0 -40 -5 -40 -10
0 -6 -3 -8 -6 -5 -6 7 -77 -11 -84 -21 -3 -4 -25 -19 -50 -33 -67 -38 -170
-155 -170 -192 0 -8 26 -36 58 -62 31 -25 59 -50 60 -55 2 -5 8 -9 13 -9 16 0
79 -72 100 -114 36 -75 17 -185 -36 -203 -11 -4 -23 -6 -27 -5 -5 1 -8 -2 -8
-6 0 -9 -51 -15 -115 -15 -58 0 -95 6 -95 15 0 4 -8 8 -17 8 -23 0 -112 56
-119 75 -4 8 -10 13 -14 10 -8 -5 -110 101 -110 115 0 5 -6 15 -12 22 -19 21
-36 48 -63 103 -31 63 -35 185 -8 243 63 137 271 377 325 377 5 0 13 7 18 15
5 8 10 11 10 6 0 -5 8 -2 18 7 10 9 29 19 43 21 13 2 24 5 24 6 0 1 14 4 30 6
17 3 32 9 33 15 2 5 8 7 13 3 5 -3 9 4 9 14 0 11 -21 44 -47 73 -66 74 -326
339 -333 339 -3 0 -13 -20 -24 -43 -10 -23 -34 -74 -52 -114 -19 -39 -34 -75
-34 -80 0 -16 -98 -201 -117 -221 -7 -7 -13 -20 -13 -28 0 -8 -4 -14 -9 -14
-5 0 -13 -9 -16 -20 -10 -30 -171 -193 -184 -186 -6 4 -11 1 -11 -7 0 -13 -47
-42 -62 -39 -5 1 -8 -2 -8 -7 0 -16 -86 -50 -137 -53 -7 -1 -13 -4 -13 -8 0
-8 -59 -14 -150 -14 -104 0 -160 6 -160 18 0 5 -3 7 -6 3 -10 -9 -75 21 -98
45 -80 86 -72 516 12 628 35 47 36 47 98 48 36 0 60 -6 73 -17 27 -24 51 -113
51 -195 1 -39 5 -90 9 -114 8 -42 49 -100 60 -84 7 9 53 38 63 41 4 1 36 32
70 69 34 37 65 69 68 72 4 3 26 32 51 65 52 71 60 81 76 100 7 7 13 18 13 24
0 5 6 16 12 23 14 15 53 92 62 123 3 11 -1 31 -9 45 -8 14 -15 21 -15 15 0 -5
-4 -4 -9 4 -5 8 -18 16 -28 19 -29 6 -215 4 -248 -3 -16 -3 -52 -9 -80 -13
-95 -13 -490 -7 -490 8 0 2 -20 7 -60 15 -16 3 -33 12 -37 18 -4 7 -8 8 -8 3
0 -5 -7 -3 -15 4 -8 7 -15 9 -15 5 0 -5 -9 0 -20 10 -11 10 -20 15 -20 11 0
-4 -6 -4 -12 1 -7 4 -16 8 -19 8 -13 0 -79 40 -79 48 0 4 -4 6 -9 2 -5 -3 -16
2 -25 10 -8 9 -17 14 -19 13 -6 -5 -77 36 -77 44 0 5 -7 8 -15 8 -8 0 -15 7
-15 15 0 8 -3 14 -7 14 -19 -3 -31 2 -54 22 -13 12 -34 28 -46 36 -18 12 -23
25 -23 58 0 38 5 48 35 72 41 34 188 113 210 113 8 0 15 4 15 9 0 10 39 27 53
23 4 -1 7 2 7 8 0 5 16 12 35 16 19 3 35 11 35 17 0 6 3 8 6 5 3 -4 17 0 31 7
15 8 30 12 35 9 4 -3 8 -1 8 4 0 5 6 9 13 10 6 0 23 3 37 7 113 28 320 27 455
-1 17 -4 36 -7 43 -7 6 0 12 -3 12 -7 0 -3 8 -6 18 -7 28 -2 71 -11 80 -17 18
-11 71 -17 170 -21 94 -4 104 -3 124 17 36 36 31 56 -58 228 -33 64 -87 134
-152 197 -36 34 -68 62 -71 61 -3 -1 -14 2 -24 7 -29 12 -46 -14 -58 -85 -5
-35 -17 -76 -26 -90 -15 -26 -73 -69 -73 -54 0 3 -6 2 -12 -3 -21 -16 -106
-13 -112 4 -3 8 -10 11 -16 8 -17 -10 -59 45 -75 97 -34 114 -25 247 23 360
33 75 133 171 191 183 9 2 35 8 58 13 79 18 238 -5 258 -38 3 -5 11 -8 16 -5
5 4 9 -2 9 -11 0 -10 3 -14 6 -11 21 21 172 -118 265 -243 130 -177 207 -316
216 -390 3 -28 14 -58 25 -70 18 -19 21 -20 37 -6 10 9 21 16 25 16 22 0 157
128 232 220 16 19 38 44 49 55 32 32 61 69 49 62 -7 -4 -23 3 -38 14 -14 11
-26 17 -26 14 0 -4 -7 -2 -15 5 -8 7 -15 9 -15 6 0 -4 -12 1 -27 12 -24 16
-55 32 -73 37 -31 8 -50 18 -50 26 0 6 -4 8 -9 4 -5 -3 -12 -1 -16 5 -4 6 -10
8 -15 5 -4 -3 -22 6 -39 20 -16 15 -34 27 -38 27 -26 4 -43 12 -43 21 0 6 -3
7 -6 4 -16 -16 -236 184 -250 225 -3 10 -9 18 -13 18 -14 0 -80 142 -92 195
-23 107 -23 182 1 266 20 68 30 86 73 129 27 27 53 47 58 44 5 -3 9 0 9 6 0 6
5 8 10 5 6 -3 13 0 16 9 5 13 58 33 77 28 4 -1 7 2 7 6 0 12 45 16 190 16 174
0 187 -2 228 -41 l35 -33 -5 -77 c-3 -59 -10 -86 -27 -113 -43 -65 -64 -74
-181 -78 -87 -3 -108 -7 -125 -23 -19 -19 -19 -19 -1 -51 37 -61 101 -128 161
-166 22 -14 43 -30 47 -36 4 -6 11 -11 15 -11 22 -2 53 -18 53 -27 0 -6 3 -8
7 -5 3 4 17 0 30 -8 13 -9 23 -12 23 -9 0 4 8 0 18 -8 15 -13 42 -27 65 -33 4
-2 9 -4 12 -5 3 -1 10 -4 15 -5 6 -1 12 -4 15 -5 3 -1 10 -4 15 -5 6 -1 13 -4
18 -5 4 -1 10 -2 15 -1 4 0 7 -4 7 -10 0 -5 5 -7 11 -3 16 9 3 112 -47 384
-24 135 -29 363 -10 451 9 41 21 83 26 94 5 11 19 43 30 70 24 56 47 102 79
158 12 22 42 78 68 125 25 48 61 110 79 138 32 48 36 50 81 52 37 1 54 -3 73
-21z"/>
<path d="M3028 3748 c-80 -42 -208 -211 -194 -256 12 -38 58 -52 171 -52 l106
0 15 35 c32 77 9 241 -39 276 -20 15 -25 15 -59 -3z"/>
<path d="M3475 3708 c-9 -23 -19 -64 -22 -90 -7 -62 14 -166 37 -178 10 -5 20
-7 22 -4 3 2 41 7 84 10 110 8 107 8 132 26 l24 16 -29 38 c-68 94 -157 185
-201 208 l-30 15 -17 -41z"/>
<path d="M3728 3115 c-2 -2 -30 -6 -63 -10 -33 -3 -76 -9 -95 -12 -19 -3 -40
-6 -46 -6 -8 0 -10 -22 -8 -66 2 -48 1 -58 -5 -36 -8 28 -9 28 -9 5 -1 -14 3
-43 7 -65 l9 -40 2 35 2 35 9 -40 c4 -22 8 -57 8 -78 l1 -37 49 36 c27 20 53
36 57 35 4 -2 12 7 16 19 4 12 12 19 17 16 5 -3 12 1 15 10 4 9 9 14 12 11 3
-2 17 6 31 19 14 13 32 24 39 24 8 0 14 4 14 10 0 5 14 32 30 61 17 28 28 54
25 57 -9 9 -110 24 -117 17z"/>
<path d="M2814 3046 c-11 -9 -14 -19 -9 -35 8 -28 170 -193 179 -184 4 4 9 -3
13 -15 3 -12 9 -20 13 -17 5 3 15 0 22 -7 8 -7 28 -21 45 -30 31 -16 32 -16
50 10 15 22 18 45 16 129 -2 111 -15 146 -62 158 -42 11 -249 4 -267 -9z"/>
</g>
</svg>
